<svg width="22" height="22" viewBox="0 0 22 22" fill="none" xmlns="http://www.w3.org/2000/svg">
<g clip-path="url(#clip0)">
<path d="M1.37498 1.49691C-0.353854 3.29266 -2.07946e-05 5.20024 -2.07946e-05 10.9954C-2.07946e-05 15.8079 -0.839688 20.6323 3.55481 21.7681C4.92706 22.121 17.0857 22.121 18.4561 21.7662C20.2858 21.2942 21.7745 19.8101 21.978 17.2223C22.0064 16.8612 22.0064 5.13608 21.9771 4.76757C21.7607 2.01116 20.064 0.422575 17.8282 0.100825C17.3158 0.026575 17.2131 0.004575 14.5841 -8.3372e-06C5.2589 0.004575 3.21473 -0.410675 1.37498 1.49691Z" fill="url(#paint0_linear)"/>
<path d="M10.9982 2.87741C7.66978 2.87741 4.50912 2.58132 3.30187 5.67966C2.8032 6.95932 2.87562 8.62124 2.87562 11.0009C2.87562 13.0891 2.8087 15.0517 3.30187 16.3212C4.50637 19.4214 7.6927 19.1244 10.9964 19.1244C14.1836 19.1244 17.4699 19.4562 18.6918 16.3212C19.1914 15.0287 19.118 13.3916 19.118 11.0009C19.118 7.82741 19.2931 5.77866 17.754 4.24049C16.1957 2.68216 14.0883 2.87741 10.9945 2.87741H10.9982ZM10.2704 4.34132C17.2132 4.33032 18.0969 3.55849 17.6092 14.2807C17.4359 18.073 14.5484 17.6568 10.9991 17.6568C4.52745 17.6568 4.34137 17.4717 4.34137 10.9972C4.34137 4.44766 4.8547 4.34499 10.2704 4.33949V4.34132ZM15.334 5.68974C14.7959 5.68974 14.3596 6.12607 14.3596 6.66416C14.3596 7.20224 14.7959 7.63858 15.334 7.63858C15.8721 7.63858 16.3084 7.20224 16.3084 6.66416C16.3084 6.12607 15.8721 5.68974 15.334 5.68974ZM10.9982 6.82916C8.69462 6.82916 6.82737 8.69733 6.82737 11.0009C6.82737 13.3045 8.69462 15.1717 10.9982 15.1717C13.3018 15.1717 15.1681 13.3045 15.1681 11.0009C15.1681 8.69733 13.3018 6.82916 10.9982 6.82916ZM10.9982 8.29308C14.5778 8.29308 14.5824 13.7087 10.9982 13.7087C7.41953 13.7087 7.41403 8.29308 10.9982 8.29308Z" fill="white"/>
</g>
<defs>
<linearGradient id="paint0_linear" x1="1.41716" y1="20.5948" x2="21.8638" y2="2.89847" gradientUnits="userSpaceOnUse">
<stop stop-color="#FFDD55"/>
<stop offset="0.5" stop-color="#FF543E"/>
<stop offset="1" stop-color="#C837AB"/>
</linearGradient>
<clipPath id="clip0">
<rect width="22" height="22" fill="white"/>
</clipPath>
</defs>
</svg>
