<svg width="21" height="21" viewBox="0 0 21 21" fill="none" xmlns="http://www.w3.org/2000/svg">
<path d="M20.1075 4.6725C19.5379 3.65925 18.9197 3.47288 17.661 3.402C16.4036 3.31669 13.2418 3.28125 10.5026 3.28125C7.75819 3.28125 4.59506 3.31669 3.339 3.40069C2.08294 3.47288 1.46344 3.65794 0.888563 4.6725C0.301875 5.68444 0 7.42744 0 10.4961C0 10.4987 0 10.5 0 10.5C0 10.5026 0 10.5039 0 10.5039V10.5066C0 13.5621 0.301875 15.3182 0.888563 16.3196C1.46344 17.3329 2.08162 17.5166 3.33769 17.6019C4.59506 17.6754 7.75819 17.7188 10.5026 17.7188C13.2418 17.7188 16.4036 17.6754 17.6623 17.6032C18.921 17.5179 19.5392 17.3342 20.1088 16.3209C20.7008 15.3195 21 13.5634 21 10.5079C21 10.5079 21 10.5039 21 10.5013C21 10.5013 21 10.4987 21 10.4974C21 7.42744 20.7008 5.68444 20.1075 4.6725ZM7.875 14.4375V6.5625L14.4375 10.5L7.875 14.4375Z" fill="#FF0000"/>
</svg>
