<svg width="64" height="64" viewBox="0 0 64 64" fill="none" xmlns="http://www.w3.org/2000/svg">
<g clip-path="url(#clip0)">
<path d="M61.998 31.5735C59.8581 29.8098 56.4759 29.6586 54.256 32.041L48.7451 37.9568C48.0326 35.667 45.894 33.9996 43.373 33.9996H33.5386C32.7924 33.9996 32.5425 33.7146 31.2463 32.716C26.304 28.4075 18.8808 28.4212 13.9535 32.7572L10.3388 35.9395C8.71388 35.0795 6.8165 35.0582 5.18275 35.8745L1.03675 37.9468C0.110501 38.4106 -0.264374 39.5367 0.198001 40.463L11.4474 62.9616C11.9111 63.8878 13.0373 64.2627 13.9635 63.8003L18.1095 61.7267C20.1531 60.7056 21.2905 58.6206 21.2167 56.4983H43.3729C47.4814 56.4983 51.4074 54.536 53.8722 51.2487L62.873 39.247C64.6191 36.9207 64.3429 33.5096 61.998 31.5735ZM16.432 58.3731L13.9634 59.608L4.39025 40.463L6.86013 39.2281C7.78638 38.7656 8.91125 39.1393 9.375 40.0668L17.2708 55.8583C17.7332 56.7845 17.3582 57.9093 16.432 58.3731ZM59.8731 36.997L50.8725 48.9987C49.1114 51.3473 46.3078 52.7485 43.373 52.7485H19.9081L12.8823 38.6956L16.4307 35.5721C19.9618 32.466 25.2865 32.466 28.8175 35.5721C30.8974 37.4032 32.191 37.7495 33.5385 37.7495H43.3729C44.4066 37.7495 45.2477 38.5907 45.2477 39.6243C45.2477 40.658 44.4065 41.4992 43.3729 41.4992H33.7972C32.7622 41.4992 31.9224 42.3392 31.9224 43.3741C31.9224 44.409 32.7624 45.249 33.7972 45.249H44.6291C46.1852 45.249 47.6852 44.5965 48.7451 43.4578L56.9996 34.5971C57.7546 33.7871 58.912 33.8546 59.622 34.4758C60.3644 35.1257 60.4445 36.237 59.8731 36.997Z" fill="white"/>
<path d="M39.4231 12.7958C40.7068 11.4497 41.498 9.62984 41.498 7.62609C41.498 3.49884 38.1633 0.00158691 33.9985 0.00158691C29.865 0.00158691 26.374 3.49259 26.374 7.62609C26.374 9.56846 27.1353 11.4021 28.5176 12.8108C25.0891 14.7332 22.6243 18.423 22.6243 22.7502V24.6251C22.6243 25.66 23.4643 26.5 24.4991 26.5H43.373C44.4079 26.5 45.2479 25.66 45.2479 24.6251V22.7502C45.2478 18.508 42.9144 14.7607 39.4231 12.7958ZM33.9985 3.75146C36.0309 3.75146 37.7483 5.52634 37.7483 7.62621C37.7483 9.69359 36.0659 11.376 33.9985 11.376C31.8986 11.376 30.1238 9.65859 30.1238 7.62621C30.1238 5.56259 31.9349 3.75146 33.9985 3.75146ZM26.374 22.7502C26.374 18.6167 29.865 15.1257 33.9985 15.1257C38.1333 15.1257 41.498 18.5455 41.498 22.7502H26.374Z" fill="white"/>
</g>
<defs>
<clipPath id="clip0">
<rect width="64" height="64" fill="white"/>
</clipPath>
</defs>
</svg>
