<svg width="67" height="67" viewBox="0 0 67 67" fill="none" xmlns="http://www.w3.org/2000/svg">
<g clip-path="url(#clip0)">
<path d="M66.8123 55.2185L58.6518 42.9733L60.0822 42.5266C60.671 42.3428 60.9991 41.7166 60.8153 41.1278C60.8078 41.1036 60.7994 41.0796 60.7902 41.056L58.2811 34.6028L63.3909 29.8515C63.8423 29.4313 63.8677 28.7248 63.4475 28.2734C63.4294 28.2538 63.4104 28.235 63.3909 28.2167L58.2811 23.4664L60.7913 17.0133C61.0148 16.4385 60.73 15.7914 60.1552 15.5678C60.1315 15.5586 60.1075 15.5502 60.0833 15.5427L53.3656 13.4478L52.7782 6.5581C52.7522 6.25144 52.6018 5.96892 52.3617 5.77644C52.1229 5.58452 51.8152 5.49993 51.5119 5.54306L44.5206 6.5112L40.9407 0.543808C40.6237 0.0147938 39.9378 -0.157031 39.4089 0.159959C39.3953 0.168194 39.3819 0.176569 39.3685 0.185362L33.5005 4.04786L27.6336 0.185362C27.1186 -0.15396 26.426 -0.0115871 26.0867 0.503329C26.0779 0.51659 26.0695 0.530129 26.0613 0.543808L22.4813 6.51343L15.4911 5.54529C14.8803 5.46043 14.3162 5.88685 14.2313 6.49766C14.2286 6.51734 14.2265 6.53716 14.2248 6.55698L13.6363 13.4467L6.92412 15.5416C6.33536 15.7254 6.0072 16.3516 6.19103 16.9403C6.19857 16.9646 6.20695 16.9886 6.21616 17.0122L8.72528 23.4653L3.60989 28.2167C3.15848 28.6368 3.13308 29.3434 3.55322 29.7948C3.57137 29.8143 3.59035 29.8332 3.60989 29.8515L8.71969 34.6017L6.20946 41.0548C5.98599 41.6296 6.27073 42.2767 6.84553 42.5004C6.86926 42.5096 6.89327 42.5179 6.91742 42.5255L8.39921 42.9867L0.166134 56.3653C-0.157137 56.8905 0.00645234 57.5782 0.531698 57.9015C0.766474 58.046 1.04634 58.0986 1.3174 58.0492L12.5206 56.0124L14.5395 66.1069C14.628 66.5497 14.9743 66.8956 15.4172 66.9835C15.4887 66.9962 15.5613 67.0018 15.6339 67.0003C16.0071 67.0003 16.3558 66.8139 16.5629 66.5033L24.3974 54.7517L26.0601 57.5243C26.2167 57.7856 26.4732 57.9716 26.7702 58.0391C26.8534 58.0583 26.9384 58.0676 27.0237 58.067C27.242 58.067 27.4556 58.003 27.6379 57.8828L33.5003 54.0203L39.3672 57.8828C39.8821 58.2221 40.5747 58.0797 40.914 57.5648C40.9228 57.5516 40.9312 57.538 40.9394 57.5243L42.6033 54.7506L50.4377 66.5033C50.6448 66.8139 50.9935 67.0003 51.3667 67.0003C51.4395 67.0004 51.5121 66.9933 51.5834 66.979C52.0263 66.8911 52.3726 66.5452 52.4611 66.1025L54.4934 55.9197L65.7827 56.9504C66.3969 57.0059 66.9399 56.5531 66.9956 55.939C67.0186 55.6849 66.954 55.4306 66.8123 55.2185ZM16.2035 63.0205L14.495 54.4938C14.3757 53.8966 13.8 53.5052 13.2008 53.6138L3.37986 55.4005L10.599 43.6734L13.6352 44.6203L14.2226 51.5101C14.2485 51.8167 14.399 52.0992 14.6391 52.2917C14.8783 52.4827 15.1855 52.5671 15.4888 52.5251L22.4802 51.557L23.1267 52.6356L16.2035 63.0205ZM42.9842 49.7781L39.6231 55.3815L34.1146 51.7501C33.7419 51.5048 33.259 51.5048 32.8863 51.7501L27.3767 55.377L24.0156 49.7725C23.814 49.4362 23.4507 49.2301 23.0586 49.2299C23.007 49.2297 22.9555 49.2335 22.9045 49.241L16.3487 50.1477L15.797 43.6834C15.7584 43.2308 15.4493 42.8466 15.0154 42.712L8.72528 40.7489L11.0702 34.7056C11.2362 34.279 11.1251 33.7945 10.79 33.4828L6.01069 29.0341L10.7955 24.5853C11.1307 24.2736 11.2418 23.7892 11.0758 23.3626L8.73086 17.317L15.0232 15.3551C15.4572 15.2204 15.7662 14.8363 15.8049 14.3836L16.3565 7.9193L22.9123 8.82714C23.3579 8.89079 23.7981 8.68085 24.029 8.29449L27.3901 2.69113L32.8863 6.31802C33.259 6.5634 33.7419 6.5634 34.1146 6.31802L39.6242 2.69113L42.9853 8.29561C43.217 8.67792 43.6533 8.8866 44.0964 8.82714L50.6522 7.92041L51.2039 14.3847C51.2425 14.8374 51.5516 15.2215 51.9855 15.3562L58.2779 17.3193L55.9262 23.3626C55.7602 23.7892 55.8713 24.2736 56.2065 24.5853L60.9902 29.0341L56.2053 33.4828C55.8702 33.7945 55.7591 34.279 55.9251 34.7056L58.27 40.7511L51.9833 42.7131C51.5493 42.8478 51.2403 43.2319 51.2016 43.6846L50.65 50.1489L44.0952 49.2455C43.6518 49.1862 43.2156 49.3954 42.9842 49.7781ZM53.7007 53.6004C53.1348 53.5566 52.624 53.9386 52.5059 54.4938L50.8007 63.0172L43.8775 52.6323L44.5229 51.5558L51.5132 52.524C52.124 52.6088 52.688 52.1824 52.7729 51.5716C52.7757 51.5519 52.7778 51.5321 52.7795 51.5123L53.3679 44.6226L56.4331 43.6667L63.659 54.5105L53.7007 53.6004Z" fill="white"/>
<path d="M50.25 23.4501C50.25 21.6 48.7502 20.1002 46.9 20.1002H39.0834V15.6336C39.0865 12.5531 36.5918 10.0534 33.5113 10.0503C33.5076 10.0503 33.5039 10.0503 33.5002 10.0503C32.8835 10.0503 32.3835 10.5503 32.3835 11.1669V16.4867L30.3735 20.4977L26.7801 23.3731C26.7439 22.7926 26.2652 22.3388 25.6836 22.3335H17.867C17.2503 22.3335 16.7504 22.8335 16.7504 23.4501V40.1999C16.7504 40.8166 17.2503 41.3166 17.867 41.3166H25.6836C26.3003 41.3166 26.8002 40.8166 26.8002 40.1999H43.55C45.3964 40.1907 46.8908 38.6963 46.9 36.85C46.8962 36.274 46.7423 35.709 46.4533 35.2107C46.6594 35.0822 46.8498 34.93 47.0206 34.7573C48.1033 33.7043 48.3299 32.0493 47.57 30.7441C47.776 30.6155 47.9664 30.4634 48.1373 30.2907C49.22 29.2377 49.4465 27.5827 48.6866 26.2775C48.8927 26.1489 49.0831 25.9968 49.2539 25.8241C49.8949 25.201 50.2546 24.3439 50.25 23.4501ZM24.5671 39.0833H18.9838V24.5668H24.5671V39.0833ZM47.675 24.2452C47.4713 24.4536 47.1913 24.5697 46.9 24.5668H42.4334V26.8001H45.7833C46.4 26.8001 46.9 27.3001 46.9 27.9167C46.901 28.2177 46.7773 28.5055 46.5583 28.7118C46.3547 28.9202 46.0747 29.0363 45.7833 29.0334H41.3167V31.2667H44.6667C45.2834 31.2667 45.7833 31.7667 45.7833 32.3833C45.7843 32.6843 45.6607 32.9721 45.4417 33.1784C45.238 33.3868 44.958 33.5029 44.6667 33.5H40.2001V35.7333H43.55C44.1667 35.7333 44.6667 36.2333 44.6667 36.85C44.6677 37.1509 44.544 37.4387 44.325 37.645C44.1214 37.8534 43.8414 37.9695 43.55 37.9666H26.8002V26.2194L31.9648 22.0889C32.0909 21.9877 32.1938 21.8606 32.2663 21.716L34.4996 17.2494C34.5769 17.0943 34.617 16.9234 34.6168 16.7502V12.4745C35.9576 12.9451 36.8538 14.2126 36.8501 15.6336V21.2168C36.8501 21.8335 37.3501 22.3335 37.9668 22.3335H46.9C47.5167 22.3335 48.0167 22.8335 48.0167 23.4501C48.0178 23.7509 47.894 24.0387 47.675 24.2452Z" fill="white"/>
</g>
<defs>
<clipPath id="clip0">
<rect width="67" height="67" fill="white"/>
</clipPath>
</defs>
</svg>
