<svg width="74" height="74" viewBox="0 0 74 74" fill="none" xmlns="http://www.w3.org/2000/svg">
<path d="M73.2502 22.067L48.3909 8.41667C47.9578 8.17898 47.4328 8.17898 46.9998 8.41667L37.6515 13.5498C37.4404 13.6085 37.2433 13.7163 37.0762 13.8654L22.1404 22.067C21.678 22.321 21.3906 22.8066 21.3906 23.3339V26.2889H4.71533C3.91702 26.2889 3.27002 26.9364 3.27002 27.7342C3.27002 28.5325 3.91702 29.1795 4.71533 29.1795H21.3906V34.3826H13.1044C12.306 34.3826 11.659 35.0302 11.659 35.8279C11.659 36.6262 12.306 37.2732 13.1044 37.2732H21.3906V44.7889H9.25C8.45169 44.7889 7.80469 45.4364 7.80469 46.2342C7.80469 47.0325 8.45169 47.6795 9.25 47.6795H21.3906V50.635C21.3906 51.1624 21.678 51.6479 22.1404 51.9019L46.9998 65.5522C47.2166 65.6714 47.4559 65.7307 47.6953 65.7307C47.9347 65.7307 48.1741 65.6714 48.3909 65.5522L73.2502 51.9019C73.7126 51.6479 74 51.1624 74 50.635V44.1628C74 43.365 73.353 42.7174 72.5547 42.7174C71.7564 42.7174 71.1094 43.365 71.1094 44.1628V49.7797L49.1406 61.843V37.8395L56.1272 34.0032V40.0916C56.1272 40.6031 56.3971 41.0762 56.8369 41.3359C57.0633 41.4697 57.3179 41.5369 57.5726 41.5369C57.8119 41.5369 58.0519 41.4776 58.2692 41.3579L63.5966 38.4261C64.0578 38.172 64.3446 37.6871 64.3446 37.1598V29.4911L71.1094 25.7768V32.6002C71.1094 33.3986 71.7564 34.0456 72.5547 34.0456C73.353 34.0456 74 33.3986 74 32.6002V23.3339C74 22.8066 73.7126 22.321 73.2502 22.067ZM46.25 61.843L24.2812 49.7797V25.7768L46.25 37.8395V61.843ZM47.6953 35.3356L25.8389 23.3339L32.7081 19.5619L54.5651 31.5637L47.6953 35.3356ZM57.568 29.9146L35.7111 17.9128L38.0806 16.612L59.937 28.6138L57.568 29.9146ZM61.454 36.3056L59.0179 37.6464V32.4162L61.454 31.0782V36.3056ZM62.94 26.9647L41.0836 14.9629L47.6953 11.3327L69.5517 23.3339L62.94 26.9647Z" fill="white"/>
<path d="M72.5547 36.9368C72.1747 36.9368 71.8015 37.0898 71.5328 37.3602C71.2641 37.6289 71.1094 38.0004 71.1094 38.3821C71.1094 38.762 71.2641 39.1352 71.5328 39.404C71.8015 39.6727 72.1747 39.8274 72.5547 39.8274C72.9346 39.8274 73.3078 39.6727 73.5766 39.404C73.8453 39.1352 74 38.762 74 38.3821C74 38.0004 73.8453 37.6289 73.5766 37.3602C73.3078 37.0898 72.9346 36.9368 72.5547 36.9368Z" fill="white"/>
<path d="M3.51674 44.7889H1.44531C0.647003 44.7889 0 45.4365 0 46.2343C0 47.0326 0.647003 47.6796 1.44531 47.6796H3.51674C4.31505 47.6796 4.96205 47.0326 4.96205 46.2343C4.96205 45.4365 4.31505 44.7889 3.51674 44.7889Z" fill="white"/>
<path d="M8.76892 35.8279C8.76892 35.4479 8.61423 35.0753 8.34492 34.8066C8.07619 34.5373 7.70357 34.3826 7.32361 34.3826C6.94308 34.3826 6.57047 34.5373 6.30173 34.8066C6.0313 35.0753 5.8783 35.4479 5.8783 35.8279C5.8783 36.2084 6.0313 36.581 6.30173 36.8498C6.57047 37.1185 6.94308 37.2732 7.32361 37.2732C7.70357 37.2732 8.07619 37.1191 8.34492 36.8498C8.61423 36.581 8.76892 36.2084 8.76892 35.8279Z" fill="white"/>
</svg>
