<svg width="66" height="66" viewBox="0 0 66 66" fill="none" xmlns="http://www.w3.org/2000/svg">
<g clip-path="url(#clip0)">
<path d="M27.6858 43.8845C28.3778 43.8746 28.9308 43.3056 28.9209 42.6136C28.9111 41.9215 28.3421 41.3685 27.65 41.3784C26.958 41.3882 26.405 41.9573 26.4148 42.6493C26.4247 43.3413 26.9937 43.8944 27.6858 43.8845Z" fill="white"/>
<path d="M5.25676 17.8849L5.32823 22.8971C5.3381 23.5892 5.90709 24.1422 6.59915 24.1323L42.8124 23.6159C43.5043 23.6061 44.0575 23.0371 44.0476 22.345L43.9761 17.3328C43.9662 16.6407 43.3971 16.0877 42.7052 16.0976L6.49195 16.614C5.79988 16.6238 5.24689 17.1928 5.25676 17.8849ZM18.557 18.9485L41.4879 18.6216L41.5236 21.1277L18.5927 21.4547L18.557 18.9485ZM7.78073 19.1022L16.0509 18.9843L16.0866 21.4904L7.81647 21.6083L7.78073 19.1022Z" fill="white"/>
<path d="M6.67062 29.1445L42.8839 28.6281C43.5758 28.6182 44.1289 28.0493 44.1191 27.3572C44.1092 26.6651 43.5401 26.1121 42.8481 26.122L6.63489 26.6384C5.94283 26.6483 5.38984 27.2172 5.3997 27.9093C5.40957 28.6014 5.97856 29.1544 6.67062 29.1445Z" fill="white"/>
<path d="M6.74216 34.1567L42.9554 33.6403C43.6473 33.6305 44.2005 33.0615 44.1906 32.3694C44.1807 31.6773 43.6116 31.1243 42.9197 31.1342L6.70642 31.6506C6.01436 31.6605 5.46137 32.2295 5.47124 32.9215C5.48111 33.6136 6.0501 34.1666 6.74216 34.1567Z" fill="white"/>
<path d="M6.81357 39.1689L27.6143 38.8723C28.3063 38.8624 28.8593 38.2934 28.8494 37.6014C28.8396 36.9093 28.2706 36.3563 27.5785 36.3662L6.77783 36.6628C6.08577 36.6727 5.53278 37.2417 5.54265 37.9337C5.55252 38.6258 6.12151 39.1788 6.81357 39.1689Z" fill="white"/>
<path d="M6.8851 44.1811L22.6736 43.956C23.3656 43.9461 23.9186 43.3771 23.9088 42.6851C23.8989 41.993 23.3299 41.44 22.6378 41.4499L6.84937 41.675C6.15731 41.6849 5.60431 42.2539 5.61418 42.9459C5.62405 43.638 6.19304 44.191 6.8851 44.1811Z" fill="white"/>
<path d="M17.8044 54.0518L24.1957 53.9607C24.8186 56.8087 27.3806 58.9285 30.4064 58.8854C33.861 58.8361 36.6316 55.9854 36.5823 52.5308C36.533 49.0761 33.6824 46.3056 30.2277 46.3548C27.2021 46.398 24.7014 48.59 24.1599 51.4546L17.7686 51.5457C17.0766 51.5556 16.5236 52.1246 16.5334 52.8167C16.5433 53.5087 17.1123 54.0617 17.8044 54.0518ZM30.2992 51.3671L26.7555 51.4176C27.252 49.9518 28.6298 48.8842 30.2634 48.861C32.3362 48.8314 34.0466 50.4937 34.0762 52.5665C34.1057 54.6393 32.4434 56.3497 30.3706 56.3793C28.7371 56.4026 27.3293 55.3748 26.7913 53.9237L30.3349 53.8732C31.0268 53.8633 31.58 53.2943 31.5701 52.6022C31.5602 51.9102 30.9912 51.3572 30.2992 51.3671Z" fill="white"/>
<path d="M42.623 10.3335C43.315 10.3236 43.8681 9.75463 43.8582 9.06256C43.8483 8.3705 43.2792 7.81751 42.5873 7.82738L40.0812 7.86311C39.3892 7.87298 38.8361 8.44197 38.846 9.13404C38.8559 9.8261 39.425 10.3791 40.1169 10.3692L42.623 10.3335Z" fill="white"/>
<path d="M35.1047 10.4408C35.7967 10.4309 36.3498 9.86193 36.3399 9.16986C36.33 8.4778 35.7609 7.92481 35.069 7.93468L32.5629 7.97041C31.8709 7.98028 31.3178 8.54927 31.3277 9.24134C31.3376 9.9334 31.9067 10.4864 32.5986 10.4765L35.1047 10.4408Z" fill="white"/>
<path d="M27.5864 10.548C28.2785 10.5381 28.8315 9.9691 28.8216 9.27704C28.8117 8.58498 28.2427 8.03199 27.5507 8.04186L25.0446 8.07759C24.3525 8.08746 23.7995 8.65645 23.8094 9.34851C23.8192 10.0406 24.3882 10.5936 25.0803 10.5837L27.5864 10.548Z" fill="white"/>
<path d="M25.4763 64.7209C26.1683 64.711 26.7213 64.142 26.7115 63.45C26.7016 62.7579 26.1326 62.2049 25.4406 62.2148C24.7485 62.2247 24.1955 62.7937 24.2054 63.4857C24.2152 64.1778 24.7842 64.7308 25.4763 64.7209Z" fill="white"/>
<path d="M2.1702 65.0533L19.8383 64.8013C20.5303 64.7915 21.0833 64.2225 21.0734 63.5304C21.0636 62.8384 20.4946 62.2854 19.8025 62.2952L3.38751 62.5293L2.6871 13.4096L11.4585 13.2845C12.1505 13.2747 12.7035 12.7057 12.6937 12.0136L12.5686 3.24223L46.2757 2.76159L46.7808 38.1794C46.222 38.86 45.6996 39.458 45.2471 39.9357L42.5527 37.3171C40.07 34.9026 36.1055 34.958 33.6917 37.4432L31.9452 39.2403C31.4629 39.7366 31.4742 40.53 31.9705 41.0124L47.0297 55.6482L47.119 61.9057L31.0799 62.1344C30.3878 62.1443 29.8348 62.7133 29.8447 63.4053C29.8546 64.0974 30.4235 64.6504 31.1156 64.6405L48.4078 64.394C49.0997 64.3841 49.6528 63.8151 49.6429 63.123L49.5716 58.1186L49.9438 58.4804C50.4401 58.9623 51.2337 58.9514 51.716 58.4551L53.4626 56.658C55.8759 54.1749 55.8199 50.2111 53.3362 47.7974L50.6423 45.1791C52.9862 42.8292 58.1597 38.9076 60.8897 37.672C64.7216 35.9386 66.0383 30.6761 62.7015 27.4331C59.3898 24.213 54.1894 25.6147 52.5346 29.506C51.914 30.9645 50.6144 33.0211 49.2413 34.9506L48.764 1.4728C48.7541 0.780736 48.185 0.227745 47.4931 0.237612L11.2798 0.753986C10.9381 0.758859 10.619 0.907539 10.399 1.13364L0.517513 11.301C0.294061 11.5304 0.158279 11.8522 0.163128 12.1923L0.899274 63.8181C0.909142 64.5101 1.47813 65.0631 2.1702 65.0533ZM51.5893 49.5948C53.0792 51.0427 53.1134 53.4211 51.6651 54.9112L50.7921 55.8096L34.6161 40.0884L35.4895 39.1898C36.9373 37.6992 39.315 37.6646 40.8057 39.1142L51.5893 49.5948ZM49.0336 39.3819C51.1678 36.7319 53.7912 32.9539 54.8409 30.4872C55.7835 28.2708 58.8642 27.1979 60.9545 29.2303C63.0457 31.2627 62.0428 34.3996 59.8565 35.3886C56.7579 36.7911 51.3881 40.8735 48.8448 43.4322L47.0445 41.6825C47.6299 41.0662 48.3129 40.277 49.0336 39.3819ZM10.0878 5.05003L10.1697 10.7963L4.42344 10.8782L10.0878 5.05003Z" fill="white"/>
</g>
<defs>
<clipPath id="clip0">
<rect width="64.1629" height="64.1629" fill="white" transform="translate(0 0.914795) rotate(-0.81694)"/>
</clipPath>
</defs>
</svg>
