<svg width="81" height="81" viewBox="0 0 81 81" fill="none" xmlns="http://www.w3.org/2000/svg">
<path d="M71.4635 37.5353C68.7073 36.1573 63.5396 36.1414 63.3209 36.1414C62.6656 36.1414 62.1344 36.6726 62.1344 37.3279C62.1344 37.9832 62.6656 38.5144 63.3209 38.5144C64.6544 38.5146 68.5261 38.7199 70.4023 39.6579C70.5726 39.7432 70.7536 39.7834 70.9319 39.7834C71.3671 39.7834 71.7862 39.5429 71.9941 39.1273C72.2873 38.5411 72.0496 37.8284 71.4635 37.5353Z" fill="white"/>
<path d="M77.379 54.4283L72.4787 53.0282C72.2672 52.9678 72.1194 52.7719 72.1194 52.5518V50.9162C72.5181 50.64 72.8984 50.3308 73.2539 49.9858C74.9767 48.3139 75.9255 46.0714 75.9255 43.6711V41.414L76.3993 40.4666C76.9193 39.4264 77.1941 38.2618 77.1941 37.099V30.9845C77.1941 30.3292 76.6629 29.798 76.0076 29.798H64.5896C60.4377 29.798 57.0598 33.1759 57.0598 37.3278V37.3985C57.0598 38.3655 57.2884 39.3338 57.7207 40.1986L58.3284 41.4139V43.3519C58.3284 46.4232 59.8419 49.179 62.1344 50.8372L62.1348 52.5515C62.1348 52.8159 62.1348 52.9254 61.155 53.2054L58.7639 53.8885L51.8471 51.3734C51.872 51.047 51.7618 50.7151 51.5238 50.465L49.3135 48.1429V44.2448C49.5472 44.0522 49.7775 43.8545 50.0007 43.6453C52.7891 41.0318 54.3882 37.3419 54.3882 33.5218V30.4086C55.2301 28.5765 55.6568 26.6377 55.6568 24.641V11.9547C55.6568 11.2994 55.1256 10.7682 54.4703 10.7682H36.709C30.4584 10.7682 25.3733 15.8535 25.3733 22.1039V24.6413C25.3733 26.638 25.7999 28.5768 26.6419 30.4089V33.0875C26.6419 37.5229 28.614 41.5188 31.7166 44.1532V48.143L29.5063 50.4651C29.2682 50.7153 29.1581 51.0472 29.1829 51.3736L21.8827 54.028C21.3536 54.2204 20.8621 54.481 20.4158 54.7966L19.2695 54.2234C22.6819 52.7381 23.7629 50.649 23.8148 50.5452C23.9819 50.2112 23.9819 49.8179 23.8148 49.484C22.9594 47.7732 22.8558 44.6374 22.7726 42.1179C22.7449 41.2791 22.7186 40.4866 22.6685 39.7811C22.2639 34.0899 17.9374 29.798 12.6044 29.798C7.27133 29.798 2.94463 34.0897 2.54027 39.7811C2.49012 40.4868 2.46386 41.2792 2.43617 42.1182C2.35296 44.6376 2.24917 47.773 1.39393 49.4838C1.22687 49.8178 1.22687 50.2111 1.39393 50.545C1.44582 50.6488 2.52461 52.7336 5.94385 54.2207L2.7597 55.8127C1.05743 56.6645 0 58.3755 0 60.2785V69.0444C0 69.6996 0.531246 70.2309 1.18652 70.2309C1.8418 70.2309 2.37305 69.6996 2.37305 69.0444V60.2785C2.37305 59.2799 2.92787 58.3821 3.82092 57.9355L7.78597 55.9531L9.16518 57.2638C10.1296 58.1802 11.3667 58.6382 12.6044 58.6382C13.8417 58.6382 15.0794 58.1799 16.0435 57.2638L17.4226 55.9532L18.7154 56.5996C18.1067 57.5737 17.7611 58.7159 17.7611 59.9124V69.0447C17.7611 69.7 18.2924 70.2312 18.9477 70.2312C19.6029 70.2312 20.1342 69.7 20.1342 69.0447V59.9124C20.1342 58.2835 21.1627 56.8151 22.6936 56.2584L30.3905 53.4596L33.5946 58.266C34.0042 58.8804 34.6606 59.2745 35.3954 59.3473C35.4774 59.3554 35.5588 59.3593 35.6402 59.3593C36.2885 59.3593 36.9094 59.1041 37.3736 58.6401L39.3283 56.6854V69.0448C39.3283 69.7001 39.8596 70.2314 40.5149 70.2314C41.1701 70.2314 41.7014 69.7001 41.7014 69.0448V56.6854L43.6562 58.6401C44.1202 59.1043 44.7411 59.3595 45.3896 59.3595C45.4707 59.3595 45.5524 59.3555 45.6342 59.3475C46.3692 59.2747 47.0256 58.8806 47.4352 58.2661L50.6394 53.4599L58.3361 56.2587C59.8669 56.8154 60.8955 58.2839 60.8955 59.9127V69.045C60.8955 69.7003 61.4268 70.2315 62.0821 70.2315C62.7374 70.2315 63.2686 69.7003 63.2686 69.045V59.9127C63.2686 58.263 62.6132 56.7158 61.5136 55.5715L61.8068 55.4878C62.1025 55.4033 62.5059 55.2877 62.9109 55.0891L65.9403 58.1185V69.045C65.9403 69.7003 66.4716 70.2315 67.1269 70.2315C67.7821 70.2315 68.3134 69.7003 68.3134 69.045V58.1185L71.3218 55.1102C71.4817 55.1915 71.6497 55.2601 71.8266 55.3106L76.7271 56.7107C77.8456 57.0303 78.627 58.066 78.627 59.2294V69.045C78.627 69.7003 79.1582 70.2315 79.8135 70.2315C80.4688 70.2315 81 69.7003 81 69.045V59.2294C81 57.0118 79.511 55.0375 77.379 54.4283ZM7.61194 52.3326C5.39251 51.534 4.27924 50.4693 3.80399 49.8879C4.12799 49.0408 4.33809 48.0707 4.48031 47.0467C5.13464 48.6156 6.23051 49.9549 7.61194 50.9105V52.3326ZM14.4091 55.5438C13.3971 56.5053 11.8118 56.5052 10.8001 55.5436L9.69659 54.4951C9.88279 54.1462 9.98515 53.7507 9.98515 53.3364V52.0717C10.8129 52.3304 11.6928 52.4699 12.6047 52.4699C13.5155 52.4699 14.3949 52.3297 15.224 52.0725L15.2239 53.3362C15.2239 53.7507 15.3261 54.1464 15.5124 54.4954L14.4091 55.5438ZM12.605 50.0968C9.06188 50.0968 6.17957 47.2144 6.17957 43.6714C6.17957 43.0162 5.64833 42.4849 4.99305 42.4849C4.9266 42.4849 4.86174 42.4917 4.7983 42.5023C4.80178 42.4003 4.8051 42.2981 4.80858 42.197C4.835 41.3811 4.86047 40.6105 4.90746 39.9495C5.05902 37.8176 5.91094 35.853 7.30629 34.4175C8.71414 32.969 10.5958 32.1713 12.6047 32.1713C14.6135 32.1713 16.495 32.969 17.9031 34.4175C19.2984 35.853 20.1503 37.8176 20.3019 39.9495C20.3487 40.6104 20.3743 41.3808 20.4012 42.1965C20.4036 42.2666 20.406 42.3376 20.4084 42.4082C19.1174 40.4193 17.1237 38.9535 14.5477 38.1258C12.1679 37.3612 10.121 37.4085 10.0347 37.4107C9.72396 37.4194 9.42906 37.5494 9.21343 37.7731L7.07263 39.9934C6.61779 40.4651 6.6314 41.2163 7.10316 41.6711C7.57492 42.1259 8.32607 42.1122 8.78091 41.6406L10.5623 39.7932C12.0964 39.8682 17.0318 40.4422 18.9513 44.6689C18.4683 47.7836 15.7912 50.0968 12.605 50.0968ZM17.5968 52.3365L17.5969 50.9214C18.9773 49.9711 20.0747 48.6343 20.7295 47.0535C20.8717 48.0752 21.0817 49.0431 21.405 49.8882C20.9325 50.464 19.814 51.5382 17.5968 52.3365ZM29.0149 33.0873V30.1435C29.0149 29.9649 28.9746 29.7885 28.8969 29.6276C28.1334 28.0465 27.7463 26.3689 27.7463 24.6413V22.1041C27.7463 17.162 31.767 13.1414 36.709 13.1414H53.2838V24.6415C53.2838 26.3691 52.8966 28.0467 52.1331 29.6277C52.0555 29.7886 52.0151 29.965 52.0151 30.1436V33.5221C52.0151 36.7353 50.7234 39.7157 48.3779 41.9143C48.085 42.1886 47.7811 42.4458 47.4669 42.6855C47.46 42.6903 47.4533 42.6955 47.4465 42.7004C45.2493 44.3686 42.5579 45.1794 39.7473 44.9973C33.7291 44.6077 29.0149 39.3762 29.0149 33.0873ZM35.6957 56.9619C35.6875 56.9701 35.6683 56.9896 35.6296 56.9855C35.591 56.9817 35.5758 56.9591 35.5693 56.9493L31.8792 51.4141L33.0667 50.1663L38.6647 53.9928L35.6957 56.9619ZM40.515 52.383L34.0896 47.991V45.7762C35.7522 46.6749 37.6137 47.237 39.5937 47.3652C39.9064 47.3854 40.2173 47.3954 40.5272 47.3954C42.796 47.3954 44.9795 46.8531 46.9404 45.8236V47.991L40.515 52.383ZM45.4608 56.9496C45.4543 56.9594 45.4391 56.982 45.4005 56.9858C45.3617 56.9907 45.3428 56.9703 45.3344 56.9622L42.3654 53.9932L47.9634 50.1666L49.151 51.4144L45.4608 56.9496ZM67.1269 55.9485L64.4342 53.256C64.4812 53.0426 64.5078 52.8089 64.5076 52.5512L64.5075 52.0505C65.2547 52.2957 66.0422 52.4413 66.8571 52.4656C66.9486 52.4685 67.0392 52.4697 67.1303 52.4697C68.0308 52.4697 68.9098 52.3337 69.7464 52.0741V52.5518C69.7464 52.7885 69.7761 53.0204 69.8321 53.2434L67.1269 55.9485ZM71.6013 48.2829C70.3438 49.5033 68.6825 50.1478 66.9285 50.0937C63.4948 49.9907 60.7014 46.9663 60.7014 43.3522V41.134C60.7014 40.9497 60.6586 40.7681 60.5761 40.6034L59.8432 39.1375C59.5747 38.6004 59.4328 37.9992 59.4328 37.3987V37.328C59.4328 34.4844 61.7462 32.1712 64.5896 32.1712H74.8211V37.0992C74.8211 37.8956 74.6328 38.6931 74.2767 39.4055L73.6777 40.6034C73.5953 40.7682 73.5524 40.9497 73.5524 41.134V43.6713C73.5524 45.4242 72.8595 47.0619 71.6013 48.2829Z" fill="white"/>
<path d="M74.7388 60.246C74.0835 60.246 73.5522 60.7772 73.5522 61.4325V69.0444C73.5522 69.6997 74.0835 70.231 74.7388 70.231C75.394 70.231 75.9253 69.6997 75.9253 69.0444V61.4325C75.9253 60.7774 75.394 60.246 74.7388 60.246Z" fill="white"/>
<path d="M6.26123 61.8143C5.60595 61.8143 5.07471 62.3456 5.07471 63.0009V69.0444C5.07471 69.6996 5.60595 70.2309 6.26123 70.2309C6.91651 70.2309 7.44775 69.6996 7.44775 69.0444V63.0009C7.44775 62.3457 6.91651 61.8143 6.26123 61.8143Z" fill="white"/>
<path d="M50.2345 25.0712C45.747 20.5836 36.3578 21.4415 32.5289 22.0186C31.3229 22.2004 30.4478 23.221 30.4478 24.4453V27.1788C30.4478 27.834 30.979 28.3653 31.6343 28.3653C32.2896 28.3653 32.8208 27.834 32.8208 27.1788V24.4452C32.8208 24.4048 32.8474 24.3703 32.8828 24.365C34.4122 24.1345 37.447 23.7788 40.5913 23.9884C44.2913 24.2348 46.9713 25.1636 48.5566 26.7491C49.02 27.2124 49.7713 27.2124 50.2345 26.7491C50.6979 26.2857 50.6979 25.5344 50.2345 25.0712Z" fill="white"/>
<path d="M26.5598 62.7833C25.9045 62.7833 25.3733 63.3146 25.3733 63.9698V69.0445C25.3733 69.6998 25.9045 70.2311 26.5598 70.2311C27.2151 70.2311 27.7463 69.6998 27.7463 69.0445V63.9698C27.7463 63.3147 27.2151 62.7833 26.5598 62.7833Z" fill="white"/>
<path d="M54.4702 62.7833C53.8149 62.7833 53.2837 63.3146 53.2837 63.9698V69.0445C53.2837 69.6998 53.8149 70.2311 54.4702 70.2311C55.1255 70.2311 55.6567 69.6998 55.6567 69.0445V63.9698C55.6567 63.3147 55.1255 62.7833 54.4702 62.7833Z" fill="white"/>
</svg>
