<svg width="63" height="63" viewBox="0 0 63 63" fill="none" xmlns="http://www.w3.org/2000/svg">
<path d="M55.3711 7.01367H50.7812L50.9652 3.69141H52.1719C53.1912 3.69141 54.0176 2.86502 54.0176 1.8457C54.0176 0.826383 53.1912 0 52.1719 0H10.8281C9.8088 0 8.98242 0.826383 8.98242 1.8457C8.98242 2.86502 9.8088 3.69141 10.8281 3.69141H12.0348L12.2188 7.01367H7.62891C4.57574 7.01367 2.0918 9.49762 2.0918 12.5508V16.9017C2.0918 25.0371 8.18508 31.8888 16.2647 32.8396C16.7569 32.8977 17.251 32.9869 17.7398 33.1051C19.6415 35.2275 22.035 36.9187 24.7713 37.9875L23.9929 43.4355H20.6719C19.7404 43.4355 18.9549 44.1297 18.8402 45.0541L17.0723 59.3086H15.75C14.7307 59.3086 13.9043 60.135 13.9043 61.1543C13.9043 62.1736 14.7307 63 15.75 63H47.25C48.2693 63 49.0957 62.1736 49.0957 61.1543C49.0957 60.135 48.2693 59.3086 47.25 59.3086H45.9277L44.1597 45.0541C44.0451 44.1297 43.2596 43.4355 42.3281 43.4355H39.0071L38.2288 37.9875C40.9651 36.9186 43.3586 35.2275 45.2603 33.1051C45.749 32.9869 46.2431 32.8977 46.7348 32.8397C54.8149 31.8888 60.9082 25.0371 60.9082 16.9017V12.5508C60.9082 9.49762 58.4243 7.01367 55.3711 7.01367ZM5.7832 16.9017V12.5508C5.7832 11.5331 6.61119 10.7051 7.62891 10.7051H12.4231L13.0363 21.7824C13.1743 24.2737 13.8113 26.6543 14.8579 28.8128C9.57391 27.3606 5.7832 22.5314 5.7832 16.9017ZM42.2082 59.3086H20.7918L22.3029 47.127H40.6971L42.2082 59.3086ZM35.6666 34.9648C34.786 35.2228 34.2284 36.0885 34.3583 36.997L35.2782 43.4355H27.722L28.6417 36.997C28.7716 36.0885 28.214 35.2228 27.3334 34.9648C21.3325 33.2067 17.0682 27.8272 16.7222 21.5782L15.732 3.69141H47.268L46.2779 21.5782C45.9318 27.8272 41.6675 33.2068 35.6666 34.9648ZM57.2168 16.9017C57.2168 22.5312 53.4263 27.3603 48.1421 28.8128C49.1887 26.6543 49.8256 24.2737 49.9636 21.7824L50.5769 10.7051H55.3711C56.3888 10.7051 57.2168 11.5331 57.2168 12.5508V16.9017Z" fill="white"/>
<path d="M36.4219 51.3105H26.5781C25.5588 51.3105 24.7324 52.1369 24.7324 53.1562C24.7324 54.1756 25.5588 55.002 26.5781 55.002H36.4219C37.4412 55.002 38.2676 54.1756 38.2676 53.1562C38.2676 52.1369 37.4412 51.3105 36.4219 51.3105Z" fill="white"/>
<path d="M31.5 8.98242H27.5625C26.5432 8.98242 25.7168 9.8088 25.7168 10.8281C25.7168 11.8474 26.5432 12.6738 27.5625 12.6738H29.6543V26.5781C29.6543 27.5974 30.4807 28.4238 31.5 28.4238C32.5193 28.4238 33.3457 27.5974 33.3457 26.5781V10.8281C33.3457 9.8088 32.5193 8.98242 31.5 8.98242Z" fill="white"/>
</svg>
